<svg xmlns="http://www.w3.org/2000/svg" xmlns:xlink="http://www.w3.org/1999/xlink" width="500" zoomAndPan="magnify" viewBox="0 0 375 374.999991" height="500" preserveAspectRatio="xMidYMid meet" version="1.0"><defs><g/><clipPath id="30086c2eb1"><path d="M 181.199219 171.007812 L 193.800781 171.007812 L 193.800781 204.496094 L 181.199219 204.496094 Z M 181.199219 171.007812 " clip-rule="nonzero"/></clipPath><clipPath id="ffceb8070b"><path d="M 190.4375 171.195312 C 190.390625 171.128906 190.347656 171.070312 190.304688 171.007812 L 184.695312 171.007812 C 184.652344 171.070312 184.609375 171.128906 184.566406 171.195312 C 179.796875 178.457031 181.691406 190.171875 181.691406 190.171875 C 181.550781 184.390625 183.046875 181.292969 183.046875 181.292969 C 181.605469 192.34375 184.742188 198.335938 184.742188 198.335938 C 185.058594 195.792969 185.367188 193.785156 185.667969 192.183594 C 185.132812 198.296875 187.5 204.496094 187.5 204.496094 C 187.5 204.496094 189.867188 198.296875 189.328125 192.183594 C 189.632812 193.785156 189.941406 195.792969 190.257812 198.335938 C 190.257812 198.335938 193.394531 192.34375 191.953125 181.292969 C 191.953125 181.292969 193.449219 184.390625 193.308594 190.171875 C 193.308594 190.171875 195.203125 178.457031 190.4375 171.195312 Z M 190.4375 171.195312 " clip-rule="nonzero"/></clipPath><clipPath id="92a5161528"><path d="M 190.4375 171.195312 C 190.390625 171.128906 190.347656 171.070312 190.304688 171.007812 L 184.695312 171.007812 C 184.652344 171.070312 184.609375 171.128906 184.566406 171.195312 C 179.796875 178.457031 181.691406 190.171875 181.691406 190.171875 C 181.550781 184.390625 183.046875 181.292969 183.046875 181.292969 C 181.605469 192.34375 184.742188 198.335938 184.742188 198.335938 C 185.058594 195.792969 185.367188 193.785156 185.667969 192.183594 C 185.132812 198.296875 187.5 204.496094 187.5 204.496094 C 187.5 204.496094 189.867188 198.296875 189.328125 192.183594 C 189.632812 193.785156 189.941406 195.792969 190.257812 198.335938 C 190.257812 198.335938 193.394531 192.34375 191.953125 181.292969 C 191.953125 181.292969 193.449219 184.390625 193.308594 190.171875 C 193.308594 190.171875 195.203125 178.457031 190.4375 171.195312 " clip-rule="nonzero"/></clipPath><linearGradient x1="0.680558" gradientTransform="matrix(0, 120.183484, -120.183484, 0, 187.5, 89.215518)" y1="0" x2="0.95922" gradientUnits="userSpaceOnUse" y2="0" id="1785f186a7"><stop stop-opacity="1" stop-color="rgb(80.39856%, 10.598755%, 16.499329%)" offset="0"/><stop stop-opacity="1" stop-color="rgb(80.203247%, 10.598755%, 16.499329%)" offset="0.125"/><stop stop-opacity="1" stop-color="rgb(79.907227%, 10.598755%, 16.499329%)" offset="0.15625"/><stop stop-opacity="1" stop-color="rgb(79.708862%, 10.598755%, 16.499329%)" offset="0.1875"/><stop stop-opacity="1" stop-color="rgb(79.603577%, 10.598755%, 16.593933%)" offset="0.21875"/><stop stop-opacity="1" stop-color="rgb(79.598999%, 10.598755%, 16.790771%)" offset="0.25"/><stop stop-opacity="1" stop-color="rgb(79.403687%, 10.598755%, 16.896057%)" offset="0.3125"/><stop stop-opacity="1" stop-color="rgb(79.10614%, 10.598755%, 16.899109%)" offset="0.34375"/><stop stop-opacity="1" stop-color="rgb(78.904724%, 10.598755%, 16.899109%)" offset="0.375"/><stop stop-opacity="1" stop-color="rgb(78.703308%, 10.598755%, 16.899109%)" offset="0.40625"/><stop stop-opacity="1" stop-color="rgb(78.504944%, 10.598755%, 16.899109%)" offset="0.4375"/><stop stop-opacity="1" stop-color="rgb(78.40271%, 10.598755%, 16.899109%)" offset="0.5"/><stop stop-opacity="1" stop-color="rgb(78.300476%, 10.598755%, 16.899109%)" offset="0.53125"/><stop stop-opacity="1" stop-color="rgb(78.103638%, 10.598755%, 16.899109%)" offset="0.5625"/><stop stop-opacity="1" stop-color="rgb(77.902222%, 10.598755%, 16.899109%)" offset="0.59375"/><stop stop-opacity="1" stop-color="rgb(77.700806%, 10.598755%, 16.899109%)" offset="0.625"/><stop stop-opacity="1" stop-color="rgb(77.450562%, 10.598755%, 16.899109%)" offset="0.6875"/><stop stop-opacity="1" stop-color="rgb(77.2995%, 10.598755%, 16.998291%)" offset="0.71875"/><stop stop-opacity="1" stop-color="rgb(77.297974%, 10.598755%, 17.198181%)" offset="0.75"/><stop stop-opacity="1" stop-color="rgb(77.198792%, 10.598755%, 17.298889%)" offset="0.78125"/><stop stop-opacity="1" stop-color="rgb(76.998901%, 10.598755%, 17.298889%)" offset="0.8125"/><stop stop-opacity="1" stop-color="rgb(76.799011%, 10.598755%, 17.298889%)" offset="0.84375"/><stop stop-opacity="1" stop-color="rgb(76.596069%, 10.598755%, 17.298889%)" offset="0.875"/><stop stop-opacity="1" stop-color="rgb(76.396179%, 10.598755%, 17.298889%)" offset="0.90625"/><stop stop-opacity="1" stop-color="rgb(76.197815%, 10.598755%, 17.298889%)" offset="0.9375"/><stop stop-opacity="1" stop-color="rgb(75.996399%, 10.598755%, 17.298889%)" offset="0.96875"/><stop stop-opacity="1" stop-color="rgb(75.796509%, 10.598755%, 17.298889%)" offset="1"/></linearGradient><clipPath id="38eb0bb08d"><path d="M 179.34375 135.058594 L 199.363281 135.058594 L 199.363281 151.714844 L 179.34375 151.714844 Z M 179.34375 135.058594 " clip-rule="nonzero"/></clipPath><clipPath id="2ddddac2f6"><path d="M 187.5 149.332031 C 184.339844 149.332031 181.773438 146.769531 181.773438 143.605469 C 181.773438 140.445312 184.339844 137.878906 187.5 137.878906 C 190.660156 137.878906 193.222656 140.445312 193.222656 143.605469 C 193.222656 146.769531 190.660156 149.332031 187.5 149.332031 Z M 197.636719 136.070312 L 196.886719 135.925781 C 193.9375 135.347656 190.777344 135.058594 187.5 135.058594 C 185.347656 135.058594 183.25 135.183594 181.230469 135.433594 L 181.046875 136.058594 C 179.660156 140.84375 179.128906 145.78125 179.464844 150.730469 L 179.492188 151.09375 C 182.03125 151.503906 184.75 151.714844 187.5 151.714844 C 191.453125 151.714844 195.335938 151.277344 198.722656 150.449219 L 199.183594 150.332031 C 199.488281 145.035156 198.804688 140.246094 197.636719 136.070312 Z M 197.636719 136.070312 " clip-rule="nonzero"/></clipPath><clipPath id="ab74594571"><path d="M 187.5 149.332031 C 184.339844 149.332031 181.773438 146.769531 181.773438 143.605469 C 181.773438 140.445312 184.339844 137.878906 187.5 137.878906 C 190.660156 137.878906 193.222656 140.445312 193.222656 143.605469 C 193.222656 146.769531 190.660156 149.332031 187.5 149.332031 Z M 197.636719 136.070312 L 196.886719 135.925781 C 193.9375 135.347656 190.777344 135.058594 187.5 135.058594 C 185.347656 135.058594 183.25 135.183594 181.230469 135.433594 L 181.046875 136.058594 C 179.660156 140.84375 179.128906 145.78125 179.464844 150.730469 L 179.492188 151.09375 C 182.03125 151.503906 184.75 151.714844 187.5 151.714844 C 191.453125 151.714844 195.335938 151.277344 198.722656 150.449219 L 199.183594 150.332031 C 199.488281 145.035156 198.804688 140.246094 197.636719 136.070312 " clip-rule="nonzero"/></clipPath><linearGradient x1="0.38143" gradientTransform="matrix(0.000000000000007359, 120.183484, -120.183484, 0.000000000000007359, 189.31261, 89.215518)" y1="0" x2="0.520044" gradientUnits="userSpaceOnUse" y2="0" id="1f09c813ea"><stop stop-opacity="1" stop-color="rgb(85.899353%, 10.598755%, 15.699768%)" offset="0"/><stop stop-opacity="1" stop-color="rgb(85.894775%, 10.598755%, 15.699768%)" offset="0.125"/><stop stop-opacity="1" stop-color="rgb(85.78949%, 10.598755%, 15.699768%)" offset="0.1875"/><stop stop-opacity="1" stop-color="rgb(85.591125%, 10.598755%, 15.699768%)" offset="0.25"/><stop stop-opacity="1" stop-color="rgb(85.391235%, 10.598755%, 15.699768%)" offset="0.3125"/><stop stop-opacity="1" stop-color="rgb(85.191345%, 10.598755%, 15.699768%)" offset="0.375"/><stop stop-opacity="1" stop-color="rgb(84.992981%, 10.598755%, 15.699768%)" offset="0.4375"/><stop stop-opacity="1" stop-color="rgb(84.793091%, 10.598755%, 15.699768%)" offset="0.5"/><stop stop-opacity="1" stop-color="rgb(84.593201%, 10.598755%, 15.699768%)" offset="0.5625"/><stop stop-opacity="1" stop-color="rgb(84.396362%, 10.598755%, 15.699768%)" offset="0.625"/><stop stop-opacity="1" stop-color="rgb(84.29718%, 10.598755%, 15.701294%)" offset="0.75"/><stop stop-opacity="1" stop-color="rgb(84.196472%, 10.598755%, 15.802002%)" offset="0.8125"/><stop stop-opacity="1" stop-color="rgb(83.996582%, 10.598755%, 16.000366%)" offset="0.875"/><stop stop-opacity="1" stop-color="rgb(83.796692%, 10.598755%, 16.099548%)" offset="0.9375"/><stop stop-opacity="1" stop-color="rgb(83.598328%, 10.598755%, 16.099548%)" offset="1"/></linearGradient><clipPath id="19f77fb7a9"><path d="M 182.394531 138.5 L 192.605469 138.5 L 192.605469 148.710938 L 182.394531 148.710938 Z M 182.394531 138.5 " clip-rule="nonzero"/></clipPath><clipPath id="4b9ac092f1"><path d="M 187.5 147.03125 C 185.609375 147.03125 184.078125 145.496094 184.078125 143.605469 C 184.078125 141.714844 185.609375 140.183594 187.5 140.183594 C 189.390625 140.183594 190.925781 141.714844 190.925781 143.605469 C 190.925781 145.496094 189.390625 147.03125 187.5 147.03125 Z M 187.5 138.5 C 184.679688 138.5 182.394531 140.785156 182.394531 143.605469 C 182.394531 146.425781 184.679688 148.710938 187.5 148.710938 C 190.320312 148.710938 192.605469 146.425781 192.605469 143.605469 C 192.605469 140.785156 190.320312 138.5 187.5 138.5 Z M 187.5 138.5 " clip-rule="nonzero"/></clipPath><clipPath id="326ad68ddd"><path d="M 187.5 147.03125 C 185.609375 147.03125 184.078125 145.496094 184.078125 143.605469 C 184.078125 141.714844 185.609375 140.183594 187.5 140.183594 C 189.390625 140.183594 190.925781 141.714844 190.925781 143.605469 C 190.925781 145.496094 189.390625 147.03125 187.5 147.03125 Z M 187.5 138.5 C 184.679688 138.5 182.394531 140.785156 182.394531 143.605469 C 182.394531 146.425781 184.679688 148.710938 187.5 148.710938 C 190.320312 148.710938 192.605469 146.425781 192.605469 143.605469 C 192.605469 140.785156 190.320312 138.5 187.5 138.5 " clip-rule="nonzero"/></clipPath><linearGradient x1="0.410072" gradientTransform="matrix(0, 120.183484, -120.183484, 0, 187.5, 89.215518)" y1="0" x2="0.495041" gradientUnits="userSpaceOnUse" y2="0" id="e373eb04cd"><stop stop-opacity="1" stop-color="rgb(85.498047%, 10.598755%, 15.699768%)" offset="0"/><stop stop-opacity="1" stop-color="rgb(85.397339%, 10.598755%, 15.699768%)" offset="0.125"/><stop stop-opacity="1" stop-color="rgb(85.197449%, 10.598755%, 15.699768%)" offset="0.25"/><stop stop-opacity="1" stop-color="rgb(84.997559%, 10.598755%, 15.699768%)" offset="0.375"/><stop stop-opacity="1" stop-color="rgb(84.797668%, 10.598755%, 15.699768%)" offset="0.5"/><stop stop-opacity="1" stop-color="rgb(84.597778%, 10.598755%, 15.699768%)" offset="0.625"/><stop stop-opacity="1" stop-color="rgb(84.397888%, 10.598755%, 15.699768%)" offset="0.75"/><stop stop-opacity="1" stop-color="rgb(84.197998%, 10.598755%, 15.699768%)" offset="0.875"/><stop stop-opacity="1" stop-color="rgb(83.998108%, 10.598755%, 15.699768%)" offset="1"/></linearGradient><clipPath id="c4d7d2a455"><path d="M 185.613281 143.039062 L 185.929688 143.039062 L 185.929688 143.605469 L 185.613281 143.605469 Z M 185.613281 143.039062 " clip-rule="nonzero"/></clipPath><clipPath id="59602563cf"><path d="M 185.835938 143.0625 C 185.761719 143.039062 185.6875 143.082031 185.667969 143.152344 C 185.644531 143.253906 185.625 143.359375 185.617188 143.46875 C 185.613281 143.542969 185.667969 143.605469 185.746094 143.605469 C 185.808594 143.605469 185.867188 143.554688 185.871094 143.492188 C 185.875 143.394531 185.890625 143.300781 185.914062 143.210938 C 185.929688 143.148438 185.894531 143.085938 185.835938 143.0625 Z M 185.835938 143.0625 " clip-rule="nonzero"/></clipPath><clipPath id="5cac977da4"><path d="M 185.835938 143.0625 C 185.761719 143.039062 185.6875 143.082031 185.667969 143.152344 C 185.644531 143.253906 185.625 143.359375 185.617188 143.46875 C 185.613281 143.542969 185.667969 143.605469 185.746094 143.605469 C 185.808594 143.605469 185.867188 143.554688 185.871094 143.492188 C 185.875 143.394531 185.890625 143.300781 185.914062 143.210938 C 185.929688 143.148438 185.894531 143.085938 185.835938 143.0625 " clip-rule="nonzero"/></clipPath><clipPath id="ae694b0171"><path d="M 185.828125 141.71875 L 187.5 141.71875 L 187.5 142.867188 L 185.828125 142.867188 Z M 185.828125 141.71875 " clip-rule="nonzero"/></clipPath><clipPath id="0665185948"><path d="M 187.363281 141.722656 C 186.722656 141.769531 186.171875 142.136719 185.867188 142.664062 C 185.828125 142.734375 185.859375 142.820312 185.933594 142.847656 L 185.9375 142.847656 C 185.996094 142.867188 186.054688 142.84375 186.085938 142.789062 C 186.351562 142.335938 186.828125 142.015625 187.378906 141.976562 C 187.449219 141.972656 187.5 141.917969 187.5 141.851562 L 187.5 141.847656 C 187.5 141.773438 187.4375 141.71875 187.363281 141.722656 Z M 187.363281 141.722656 " clip-rule="nonzero"/></clipPath><clipPath id="c9550ce19f"><path d="M 187.363281 141.722656 C 186.722656 141.769531 186.171875 142.136719 185.867188 142.664062 C 185.828125 142.734375 185.859375 142.820312 185.933594 142.847656 L 185.9375 142.847656 C 185.996094 142.867188 186.054688 142.84375 186.085938 142.789062 C 186.351562 142.335938 186.828125 142.015625 187.378906 141.976562 C 187.449219 141.972656 187.5 141.917969 187.5 141.851562 L 187.5 141.847656 C 187.5 141.773438 187.4375 141.71875 187.363281 141.722656 " clip-rule="nonzero"/></clipPath><clipPath id="f24196a91f"><path d="M 184.476562 140.582031 L 190.523438 140.582031 L 190.523438 146.628906 L 184.476562 146.628906 Z M 184.476562 140.582031 " clip-rule="nonzero"/></clipPath><clipPath id="38e3d45005"><path d="M 187.5 145.773438 C 186.304688 145.773438 185.332031 144.800781 185.332031 143.605469 C 185.332031 142.410156 186.304688 141.441406 187.5 141.441406 C 188.695312 141.441406 189.667969 142.410156 189.667969 143.605469 C 189.667969 144.800781 188.695312 145.773438 187.5 145.773438 Z M 187.5 140.582031 C 185.828125 140.582031 184.476562 141.933594 184.476562 143.605469 C 184.476562 145.277344 185.828125 146.628906 187.5 146.628906 C 189.171875 146.628906 190.523438 145.277344 190.523438 143.605469 C 190.523438 141.933594 189.171875 140.582031 187.5 140.582031 Z M 187.5 140.582031 " clip-rule="nonzero"/></clipPath><clipPath id="ebf9bb3794"><path d="M 187.5 145.773438 C 186.304688 145.773438 185.332031 144.800781 185.332031 143.605469 C 185.332031 142.410156 186.304688 141.441406 187.5 141.441406 C 188.695312 141.441406 189.667969 142.410156 189.667969 143.605469 C 189.667969 144.800781 188.695312 145.773438 187.5 145.773438 Z M 187.5 140.582031 C 185.828125 140.582031 184.476562 141.933594 184.476562 143.605469 C 184.476562 145.277344 185.828125 146.628906 187.5 146.628906 C 189.171875 146.628906 190.523438 145.277344 190.523438 143.605469 C 190.523438 141.933594 189.171875 140.582031 187.5 140.582031 " clip-rule="nonzero"/></clipPath><linearGradient x1="0.427392" gradientTransform="matrix(0, 120.183484, -120.183484, 0, 187.5, 89.215518)" y1="0" x2="0.477728" gradientUnits="userSpaceOnUse" y2="0" id="32677b1069"><stop stop-opacity="1" stop-color="rgb(85.093689%, 10.598755%, 15.699768%)" offset="0"/><stop stop-opacity="1" stop-color="rgb(84.994507%, 10.598755%, 15.699768%)" offset="0.25"/><stop stop-opacity="1" stop-color="rgb(84.796143%, 10.598755%, 15.699768%)" offset="0.5"/><stop stop-opacity="1" stop-color="rgb(84.599304%, 10.598755%, 15.699768%)" offset="0.75"/><stop stop-opacity="1" stop-color="rgb(84.402466%, 10.598755%, 15.699768%)" offset="1"/></linearGradient><clipPath id="35b7230e61"><path d="M 180.824219 165.847656 L 194.175781 165.847656 L 194.175781 170.007812 L 180.824219 170.007812 Z M 180.824219 165.847656 " clip-rule="nonzero"/></clipPath><clipPath id="26de7b2ea1"><path d="M 180.824219 165.847656 L 182.964844 169.207031 L 183.277344 169.207031 L 183.667969 170.007812 L 191.332031 170.007812 L 191.722656 169.207031 L 192.035156 169.207031 L 194.175781 165.847656 Z M 180.824219 165.847656 " clip-rule="nonzero"/></clipPath><clipPath id="bb04f58afb"><path d="M 180.824219 165.847656 L 182.964844 169.207031 L 183.277344 169.207031 L 183.667969 170.007812 L 191.332031 170.007812 L 191.722656 169.207031 L 192.035156 169.207031 L 194.175781 165.847656 L 180.824219 165.847656 " clip-rule="nonzero"/></clipPath><linearGradient x1="0.637635" gradientTransform="matrix(0, 120.183484, -120.183484, 0, 187.5, 89.215518)" y1="0" x2="0.672233" gradientUnits="userSpaceOnUse" y2="0" id="eee71ee5a8"><stop stop-opacity="1" stop-color="rgb(81.199646%, 10.598755%, 16.499329%)" offset="0"/><stop stop-opacity="1" stop-color="rgb(81.199646%, 10.598755%, 16.499329%)" offset="0.5"/><stop stop-opacity="1" stop-color="rgb(81.097412%, 10.598755%, 16.499329%)" offset="0.75"/><stop stop-opacity="1" stop-color="rgb(80.897522%, 10.598755%, 16.499329%)" offset="1"/></linearGradient><clipPath id="0448335680"><path d="M 167.824219 158.441406 L 178.925781 158.441406 L 178.925781 172.085938 L 167.824219 172.085938 Z M 167.824219 158.441406 " clip-rule="nonzero"/></clipPath><clipPath id="9e10199b5d"><path d="M 177.824219 165.847656 L 176.953125 163.609375 L 169.84375 168.730469 L 169.761719 167.988281 L 176.082031 160.636719 C 175.878906 159.90625 175.691406 159.175781 175.523438 158.441406 L 167.824219 167.390625 L 168.359375 172.085938 L 178.925781 165.847656 Z M 177.824219 165.847656 " clip-rule="nonzero"/></clipPath><clipPath id="c8fb9e9f92"><path d="M 177.824219 165.847656 L 176.953125 163.609375 L 169.84375 168.730469 L 169.761719 167.988281 L 176.082031 160.636719 C 175.878906 159.90625 175.691406 159.175781 175.523438 158.441406 L 167.824219 167.390625 L 168.359375 172.085938 L 178.925781 165.847656 L 177.824219 165.847656 " clip-rule="nonzero"/></clipPath><linearGradient x1="0.576013" gradientTransform="matrix(0.000000000000007359, 120.183484, -120.183484, 0.000000000000007359, 173.37491, 89.215638)" y1="0" x2="0.689544" gradientUnits="userSpaceOnUse" y2="0" id="9d5f9e89c1"><stop stop-opacity="1" stop-color="rgb(82.398987%, 10.598755%, 16.099548%)" offset="0"/><stop stop-opacity="1" stop-color="rgb(82.398987%, 10.598755%, 16.099548%)" offset="0.125"/><stop stop-opacity="1" stop-color="rgb(82.299805%, 10.598755%, 16.099548%)" offset="0.1875"/><stop stop-opacity="1" stop-color="rgb(82.10144%, 10.598755%, 16.099548%)" offset="0.25"/><stop stop-opacity="1" stop-color="rgb(82.000732%, 10.598755%, 16.197205%)" offset="0.3125"/><stop stop-opacity="1" stop-color="rgb(81.999207%, 10.598755%, 16.394043%)" offset="0.375"/><stop stop-opacity="1" stop-color="rgb(81.90155%, 10.598755%, 16.496277%)" offset="0.4375"/><stop stop-opacity="1" stop-color="rgb(81.704712%, 10.598755%, 16.499329%)" offset="0.5"/><stop stop-opacity="1" stop-color="rgb(81.504822%, 10.598755%, 16.499329%)" offset="0.5625"/><stop stop-opacity="1" stop-color="rgb(81.306458%, 10.598755%, 16.499329%)" offset="0.625"/><stop stop-opacity="1" stop-color="rgb(81.202698%, 10.598755%, 16.499329%)" offset="0.75"/><stop stop-opacity="1" stop-color="rgb(81.004333%, 10.598755%, 16.499329%)" offset="0.875"/><stop stop-opacity="1" stop-color="rgb(80.709839%, 10.598755%, 16.499329%)" offset="0.9375"/><stop stop-opacity="1" stop-color="rgb(80.511475%, 10.598755%, 16.499329%)" offset="1"/></linearGradient><clipPath id="cd8cf166bc"><path d="M 196.074219 158.441406 L 207.175781 158.441406 L 207.175781 172.085938 L 196.074219 172.085938 Z M 196.074219 158.441406 " clip-rule="nonzero"/></clipPath><clipPath id="7e1b15a3a0"><path d="M 199.476562 158.441406 C 199.308594 159.175781 199.121094 159.90625 198.917969 160.636719 L 205.242188 167.988281 L 205.15625 168.730469 L 198.046875 163.609375 L 197.175781 165.847656 L 196.074219 165.847656 L 206.640625 172.085938 L 207.175781 167.390625 Z M 199.476562 158.441406 " clip-rule="nonzero"/></clipPath><clipPath id="6401c41e72"><path d="M 199.476562 158.441406 C 199.308594 159.175781 199.121094 159.90625 198.917969 160.636719 L 205.242188 167.988281 L 205.15625 168.730469 L 198.046875 163.609375 L 197.175781 165.847656 L 196.074219 165.847656 L 206.640625 172.085938 L 207.175781 167.390625 L 199.476562 158.441406 " clip-rule="nonzero"/></clipPath><linearGradient x1="0.576014" gradientTransform="matrix(0.000000000000007359, 120.183484, -120.183484, 0.000000000000007359, 201.62521, 89.215518)" y1="0" x2="0.689545" gradientUnits="userSpaceOnUse" y2="0" id="be0a770ac8"><stop stop-opacity="1" stop-color="rgb(82.398987%, 10.598755%, 16.099548%)" offset="0"/><stop stop-opacity="1" stop-color="rgb(82.398987%, 10.598755%, 16.099548%)" offset="0.125"/><stop stop-opacity="1" stop-color="rgb(82.299805%, 10.598755%, 16.099548%)" offset="0.1875"/><stop stop-opacity="1" stop-color="rgb(82.10144%, 10.598755%, 16.099548%)" offset="0.25"/><stop stop-opacity="1" stop-color="rgb(82.000732%, 10.598755%, 16.197205%)" offset="0.3125"/><stop stop-opacity="1" stop-color="rgb(81.999207%, 10.598755%, 16.394043%)" offset="0.375"/><stop stop-opacity="1" stop-color="rgb(81.90155%, 10.598755%, 16.496277%)" offset="0.4375"/><stop stop-opacity="1" stop-color="rgb(81.704712%, 10.598755%, 16.499329%)" offset="0.5"/><stop stop-opacity="1" stop-color="rgb(81.504822%, 10.598755%, 16.499329%)" offset="0.5625"/><stop stop-opacity="1" stop-color="rgb(81.306458%, 10.598755%, 16.499329%)" offset="0.625"/><stop stop-opacity="1" stop-color="rgb(81.202698%, 10.598755%, 16.499329%)" offset="0.75"/><stop stop-opacity="1" stop-color="rgb(81.004333%, 10.598755%, 16.499329%)" offset="0.875"/><stop stop-opacity="1" stop-color="rgb(80.709839%, 10.598755%, 16.499329%)" offset="0.9375"/><stop stop-opacity="1" stop-color="rgb(80.511475%, 10.598755%, 16.499329%)" offset="1"/></linearGradient><clipPath id="a893a10ab9"><path d="M 179.636719 151.863281 L 199.070312 151.863281 L 199.070312 164.390625 L 179.636719 164.390625 Z M 179.636719 151.863281 " clip-rule="nonzero"/></clipPath><clipPath id="7f68797237"><path d="M 187.5 153.171875 C 184.738281 153.171875 182.089844 152.964844 179.636719 152.59375 C 180.054688 156.335938 180.972656 160.132812 182.367188 163.882812 L 182.554688 164.390625 L 196.164062 164.390625 C 197.808594 159.976562 198.710938 155.789062 199.070312 151.863281 C 195.667969 152.695312 191.714844 153.171875 187.5 153.171875 Z M 187.5 153.171875 " clip-rule="nonzero"/></clipPath><clipPath id="2cd728692c"><path d="M 187.5 153.171875 C 184.738281 153.171875 182.089844 152.964844 179.636719 152.59375 C 180.054688 156.335938 180.972656 160.132812 182.367188 163.882812 L 182.554688 164.390625 L 196.164062 164.390625 C 197.808594 159.976562 198.710938 155.789062 199.070312 151.863281 C 195.667969 152.695312 191.714844 153.171875 187.5 153.171875 " clip-rule="nonzero"/></clipPath><linearGradient x1="0.521226" gradientTransform="matrix(0.000000000000007359, 120.183484, -120.183484, 0.000000000000007359, 189.35336, 89.219238)" y1="0" x2="0.625476" gradientUnits="userSpaceOnUse" y2="0" id="f79376522b"><stop stop-opacity="1" stop-color="rgb(83.493042%, 10.598755%, 16.099548%)" offset="0"/><stop stop-opacity="1" stop-color="rgb(83.392334%, 10.598755%, 16.099548%)" offset="0.0625"/><stop stop-opacity="1" stop-color="rgb(83.195496%, 10.598755%, 16.099548%)" offset="0.125"/><stop stop-opacity="1" stop-color="rgb(83.096313%, 10.598755%, 16.099548%)" offset="0.25"/><stop stop-opacity="1" stop-color="rgb(82.99408%, 10.598755%, 16.099548%)" offset="0.375"/><stop stop-opacity="1" stop-color="rgb(82.794189%, 10.598755%, 16.099548%)" offset="0.5"/><stop stop-opacity="1" stop-color="rgb(82.543945%, 10.598755%, 16.1026%)" offset="0.75"/><stop stop-opacity="1" stop-color="rgb(82.292175%, 10.598755%, 16.204834%)" offset="0.875"/><stop stop-opacity="1" stop-color="rgb(82.095337%, 10.598755%, 16.401672%)" offset="1"/></linearGradient><clipPath id="3da3281c23"><path d="M 175.929688 151.863281 L 181 151.863281 L 181 164.390625 L 175.929688 164.390625 Z M 175.929688 151.863281 " clip-rule="nonzero"/></clipPath><clipPath id="ddc0747d35"><path d="M 175.929688 151.863281 C 176.289062 155.789062 177.191406 159.976562 178.835938 164.390625 L 181 164.390625 C 179.425781 160.15625 178.527344 156.125 178.140625 152.339844 C 177.382812 152.195312 176.644531 152.039062 175.929688 151.863281 Z M 175.929688 151.863281 " clip-rule="nonzero"/></clipPath><clipPath id="1db8a68f99"><path d="M 175.929688 151.863281 C 176.289062 155.789062 177.191406 159.976562 178.835938 164.390625 L 181 164.390625 C 179.425781 160.15625 178.527344 156.125 178.140625 152.339844 C 177.382812 152.195312 176.644531 152.039062 175.929688 151.863281 " clip-rule="nonzero"/></clipPath><linearGradient x1="0.521226" gradientTransform="matrix(0.000000000000007359, 120.183484, -120.183484, 0.000000000000007359, 178.46515, 89.219238)" y1="0" x2="0.625476" gradientUnits="userSpaceOnUse" y2="0" id="657f7464f5"><stop stop-opacity="1" stop-color="rgb(83.493042%, 10.598755%, 16.099548%)" offset="0"/><stop stop-opacity="1" stop-color="rgb(83.392334%, 10.598755%, 16.099548%)" offset="0.0625"/><stop stop-opacity="1" stop-color="rgb(83.195496%, 10.598755%, 16.099548%)" offset="0.125"/><stop stop-opacity="1" stop-color="rgb(83.096313%, 10.598755%, 16.099548%)" offset="0.25"/><stop stop-opacity="1" stop-color="rgb(82.99408%, 10.598755%, 16.099548%)" offset="0.375"/><stop stop-opacity="1" stop-color="rgb(82.794189%, 10.598755%, 16.099548%)" offset="0.5"/><stop stop-opacity="1" stop-color="rgb(82.543945%, 10.598755%, 16.1026%)" offset="0.75"/><stop stop-opacity="1" stop-color="rgb(82.292175%, 10.598755%, 16.204834%)" offset="0.875"/><stop stop-opacity="1" stop-color="rgb(82.095337%, 10.598755%, 16.401672%)" offset="1"/></linearGradient><clipPath id="7b02d26528"><path d="M 175.636719 135.652344 L 179.648438 135.652344 L 179.648438 150.828125 L 175.636719 150.828125 Z M 175.636719 135.652344 " clip-rule="nonzero"/></clipPath><clipPath id="ec10a6a6a9"><path d="M 179.648438 135.652344 C 179.128906 135.734375 178.617188 135.824219 178.113281 135.925781 L 177.363281 136.070312 C 176.195312 140.246094 175.515625 145.035156 175.816406 150.332031 L 176.277344 150.449219 C 176.839844 150.585938 177.421875 150.710938 178.011719 150.828125 C 177.625 145.152344 178.375 140.054688 179.648438 135.652344 Z M 179.648438 135.652344 " clip-rule="nonzero"/></clipPath><clipPath id="54642504e5"><path d="M 179.648438 135.652344 C 179.128906 135.734375 178.617188 135.824219 178.113281 135.925781 L 177.363281 136.070312 C 176.195312 140.246094 175.515625 145.035156 175.816406 150.332031 L 176.277344 150.449219 C 176.839844 150.585938 177.421875 150.710938 178.011719 150.828125 C 177.625 145.152344 178.375 140.054688 179.648438 135.652344 " clip-rule="nonzero"/></clipPath><linearGradient x1="0.386394" gradientTransform="matrix(0.000000000000007359, 120.183484, -120.183484, 0.000000000000007359, 177.69563, 89.215518)" y1="0" x2="0.512663" gradientUnits="userSpaceOnUse" y2="0" id="8c18d0a471"><stop stop-opacity="1" stop-color="rgb(85.888672%, 10.598755%, 15.699768%)" offset="0"/><stop stop-opacity="1" stop-color="rgb(85.693359%, 10.598755%, 15.699768%)" offset="0.125"/><stop stop-opacity="1" stop-color="rgb(85.496521%, 10.598755%, 15.699768%)" offset="0.25"/><stop stop-opacity="1" stop-color="rgb(85.394287%, 10.598755%, 15.699768%)" offset="0.3125"/><stop stop-opacity="1" stop-color="rgb(85.195923%, 10.598755%, 15.699768%)" offset="0.375"/><stop stop-opacity="1" stop-color="rgb(84.996033%, 10.598755%, 15.699768%)" offset="0.4375"/><stop stop-opacity="1" stop-color="rgb(84.797668%, 10.598755%, 15.699768%)" offset="0.5"/><stop stop-opacity="1" stop-color="rgb(84.698486%, 10.598755%, 15.699768%)" offset="0.625"/><stop stop-opacity="1" stop-color="rgb(84.599304%, 10.598755%, 15.699768%)" offset="0.6875"/><stop stop-opacity="1" stop-color="rgb(84.402466%, 10.598755%, 15.699768%)" offset="0.75"/><stop stop-opacity="1" stop-color="rgb(84.204102%, 10.598755%, 15.699768%)" offset="0.8125"/><stop stop-opacity="1" stop-color="rgb(84.004211%, 10.598755%, 15.699768%)" offset="0.875"/><stop stop-opacity="1" stop-color="rgb(83.805847%, 10.598755%, 15.795898%)" offset="0.9375"/><stop stop-opacity="1" stop-color="rgb(83.607483%, 10.598755%, 15.991211%)" offset="1"/></linearGradient><clipPath id="1720ed7748"><path d="M 181.730469 120.007812 L 197.167969 120.007812 L 197.167969 134.492188 L 181.730469 134.492188 Z M 181.730469 120.007812 " clip-rule="nonzero"/></clipPath><clipPath id="67ab4bf2ca"><path d="M 189.519531 120.007812 C 187.527344 122.386719 184.070312 127.148438 181.730469 133.90625 C 183.574219 133.707031 185.507812 133.601562 187.5 133.601562 C 190.949219 133.601562 194.226562 133.921875 197.167969 134.492188 C 195.007812 127.71875 191.65625 122.726562 189.519531 120.007812 Z M 189.519531 120.007812 " clip-rule="nonzero"/></clipPath><clipPath id="229466fa91"><path d="M 189.519531 120.007812 C 187.527344 122.386719 184.070312 127.148438 181.730469 133.90625 C 183.574219 133.707031 185.507812 133.601562 187.5 133.601562 C 190.949219 133.601562 194.226562 133.921875 197.167969 134.492188 C 195.007812 127.71875 191.65625 122.726562 189.519531 120.007812 " clip-rule="nonzero"/></clipPath><linearGradient x1="0.256209" gradientTransform="matrix(0.000000000000007359, 120.183484, -120.183484, 0.000000000000007359, 189.44852, 89.215518)" y1="0" x2="0.376739" gradientUnits="userSpaceOnUse" y2="0" id="82f700b5cb"><stop stop-opacity="1" stop-color="rgb(88.198853%, 10.998535%, 14.904785%)" offset="0"/><stop stop-opacity="1" stop-color="rgb(88.198853%, 10.998535%, 15.003967%)" offset="0.0625"/><stop stop-opacity="1" stop-color="rgb(88.197327%, 10.998535%, 15.202332%)" offset="0.125"/><stop stop-opacity="1" stop-color="rgb(88.095093%, 10.998535%, 15.299988%)" offset="0.1875"/><stop stop-opacity="1" stop-color="rgb(87.896729%, 10.998535%, 15.299988%)" offset="0.25"/><stop stop-opacity="1" stop-color="rgb(87.64801%, 10.998535%, 15.299988%)" offset="0.375"/><stop stop-opacity="1" stop-color="rgb(87.397766%, 10.897827%, 15.299988%)" offset="0.4375"/><stop stop-opacity="1" stop-color="rgb(87.199402%, 10.699463%, 15.299988%)" offset="0.5"/><stop stop-opacity="1" stop-color="rgb(87.098694%, 10.598755%, 15.299988%)" offset="0.625"/><stop stop-opacity="1" stop-color="rgb(86.999512%, 10.598755%, 15.299988%)" offset="0.6875"/><stop stop-opacity="1" stop-color="rgb(86.802673%, 10.598755%, 15.299988%)" offset="0.75"/><stop stop-opacity="1" stop-color="rgb(86.602783%, 10.598755%, 15.299988%)" offset="0.8125"/><stop stop-opacity="1" stop-color="rgb(86.404419%, 10.598755%, 15.299988%)" offset="0.875"/><stop stop-opacity="1" stop-color="rgb(86.302185%, 10.598755%, 15.299988%)" offset="1"/></linearGradient><clipPath id="4d10fd9415"><path d="M 177.832031 117.664062 L 188.582031 117.664062 L 188.582031 134.492188 L 177.832031 134.492188 Z M 177.832031 117.664062 " clip-rule="nonzero"/></clipPath><clipPath id="223669fabb"><path d="M 188.582031 118.859375 C 187.914062 118.074219 187.5 117.664062 187.5 117.664062 C 187.5 117.664062 181.210938 123.898438 177.832031 134.492188 C 178.578125 134.347656 179.34375 134.21875 180.125 134.109375 C 182.648438 126.433594 186.667969 121.105469 188.582031 118.859375 Z M 188.582031 118.859375 " clip-rule="nonzero"/></clipPath><clipPath id="97c3163375"><path d="M 188.582031 118.859375 C 187.914062 118.074219 187.5 117.664062 187.5 117.664062 C 187.5 117.664062 181.210938 123.898438 177.832031 134.492188 C 178.578125 134.347656 179.34375 134.21875 180.125 134.109375 C 182.648438 126.433594 186.667969 121.105469 188.582031 118.859375 " clip-rule="nonzero"/></clipPath><linearGradient x1="0.236694" gradientTransform="matrix(0.000000000000007359, 120.183484, -120.183484, 0.000000000000007359, 183.20844, 89.215638)" y1="0" x2="0.376738" gradientUnits="userSpaceOnUse" y2="0" id="d34449d38b"><stop stop-opacity="1" stop-color="rgb(88.598633%, 10.998535%, 14.898682%)" offset="0"/><stop stop-opacity="1" stop-color="rgb(88.502502%, 10.998535%, 14.898682%)" offset="0.0625"/><stop stop-opacity="1" stop-color="rgb(88.305664%, 10.998535%, 14.898682%)" offset="0.125"/><stop stop-opacity="1" stop-color="rgb(88.201904%, 10.998535%, 14.994812%)" offset="0.1875"/><stop stop-opacity="1" stop-color="rgb(88.198853%, 10.998535%, 15.19165%)" offset="0.25"/><stop stop-opacity="1" stop-color="rgb(88.102722%, 10.998535%, 15.29541%)" offset="0.3125"/><stop stop-opacity="1" stop-color="rgb(87.905884%, 10.998535%, 15.299988%)" offset="0.375"/><stop stop-opacity="1" stop-color="rgb(87.654114%, 10.998535%, 15.299988%)" offset="0.5"/><stop stop-opacity="1" stop-color="rgb(87.405396%, 10.902405%, 15.299988%)" offset="0.5625"/><stop stop-opacity="1" stop-color="rgb(87.205505%, 10.705566%, 15.299988%)" offset="0.625"/><stop stop-opacity="1" stop-color="rgb(87.005615%, 10.601807%, 15.299988%)" offset="0.6875"/><stop stop-opacity="1" stop-color="rgb(86.804199%, 10.598755%, 15.299988%)" offset="0.75"/><stop stop-opacity="1" stop-color="rgb(86.604309%, 10.598755%, 15.299988%)" offset="0.8125"/><stop stop-opacity="1" stop-color="rgb(86.404419%, 10.598755%, 15.299988%)" offset="0.875"/><stop stop-opacity="1" stop-color="rgb(86.302185%, 10.598755%, 15.299988%)" offset="1"/></linearGradient><clipPath id="72528a06c0"><path d="M 203.96875 115.644531 L 210.386719 115.644531 L 210.386719 122.0625 L 203.96875 122.0625 Z M 203.96875 115.644531 " clip-rule="nonzero"/></clipPath><clipPath id="4a99c7f9cb"><path d="M 210.386719 118.855469 C 207.742188 119.167969 207.488281 119.421875 207.175781 122.0625 C 206.863281 119.421875 206.609375 119.167969 203.96875 118.855469 C 206.609375 118.542969 206.863281 118.289062 207.175781 115.644531 C 207.488281 118.289062 207.742188 118.542969 210.386719 118.855469 Z M 210.386719 118.855469 " clip-rule="nonzero"/></clipPath><clipPath id="a5ba7621ed"><path d="M 210.386719 118.855469 C 207.742188 119.167969 207.488281 119.421875 207.175781 122.0625 C 206.863281 119.421875 206.609375 119.167969 203.96875 118.855469 C 206.609375 118.542969 206.863281 118.289062 207.175781 115.644531 C 207.488281 118.289062 207.742188 118.542969 210.386719 118.855469 " clip-rule="nonzero"/></clipPath><linearGradient x1="0.219917" gradientTransform="matrix(0.000000000000007359, 120.183484, -120.183484, 0.000000000000007359, 207.17668, 89.215518)" y1="0" x2="0.273317" gradientUnits="userSpaceOnUse" y2="0" id="417e2774c8"><stop stop-opacity="1" stop-color="rgb(88.999939%, 10.998535%, 14.898682%)" offset="0"/><stop stop-opacity="1" stop-color="rgb(88.899231%, 10.998535%, 14.898682%)" offset="0.125"/><stop stop-opacity="1" stop-color="rgb(88.699341%, 10.998535%, 14.898682%)" offset="0.25"/><stop stop-opacity="1" stop-color="rgb(88.597107%, 10.998535%, 14.898682%)" offset="0.5"/><stop stop-opacity="1" stop-color="rgb(88.494873%, 10.998535%, 14.898682%)" offset="0.625"/><stop stop-opacity="1" stop-color="rgb(88.293457%, 10.998535%, 14.901733%)" offset="0.75"/><stop stop-opacity="1" stop-color="rgb(88.092041%, 10.998535%, 15.007019%)" offset="0.875"/><stop stop-opacity="1" stop-color="rgb(87.895203%, 10.998535%, 15.203857%)" offset="1"/></linearGradient><clipPath id="5d84b42877"><path d="M 227.542969 146.789062 L 232.621094 146.789062 L 232.621094 151.871094 L 227.542969 151.871094 Z M 227.542969 146.789062 " clip-rule="nonzero"/></clipPath><clipPath id="e92e73a89a"><path d="M 232.621094 149.332031 C 230.53125 149.578125 230.328125 149.777344 230.082031 151.871094 C 229.832031 149.777344 229.632812 149.578125 227.542969 149.332031 C 229.632812 149.082031 229.832031 148.882812 230.082031 146.789062 C 230.328125 148.882812 230.53125 149.082031 232.621094 149.332031 Z M 232.621094 149.332031 " clip-rule="nonzero"/></clipPath><clipPath id="87c01b156d"><path d="M 232.621094 149.332031 C 230.53125 149.578125 230.328125 149.777344 230.082031 151.871094 C 229.832031 149.777344 229.632812 149.578125 227.542969 149.332031 C 229.632812 149.082031 229.832031 148.882812 230.082031 146.789062 C 230.328125 148.882812 230.53125 149.082031 232.621094 149.332031 " clip-rule="nonzero"/></clipPath><linearGradient x1="0.479053" gradientTransform="matrix(0.000000000000007359, 120.183484, -120.183484, 0.000000000000007359, 230.081949, 89.215518)" y1="0" x2="0.521341" gradientUnits="userSpaceOnUse" y2="0" id="0d55735a65"><stop stop-opacity="1" stop-color="rgb(84.298706%, 10.598755%, 15.699768%)" offset="0"/><stop stop-opacity="1" stop-color="rgb(84.197998%, 10.598755%, 15.800476%)" offset="0.25"/><stop stop-opacity="1" stop-color="rgb(83.996582%, 10.598755%, 16.000366%)" offset="0.5"/><stop stop-opacity="1" stop-color="rgb(83.795166%, 10.598755%, 16.099548%)" offset="0.75"/><stop stop-opacity="1" stop-color="rgb(83.596802%, 10.598755%, 16.099548%)" offset="1"/></linearGradient><clipPath id="b3094420c4"><path d="M 143.085938 121.359375 L 152.523438 121.359375 L 152.523438 130.796875 L 143.085938 130.796875 Z M 143.085938 121.359375 " clip-rule="nonzero"/></clipPath><clipPath id="67a26332fc"><path d="M 152.523438 126.078125 C 148.636719 126.539062 148.265625 126.910156 147.804688 130.796875 C 147.34375 126.910156 146.972656 126.539062 143.085938 126.078125 C 146.972656 125.617188 147.34375 125.246094 147.804688 121.359375 C 148.265625 125.246094 148.636719 125.617188 152.523438 126.078125 Z M 152.523438 126.078125 " clip-rule="nonzero"/></clipPath><clipPath id="8b54fa48d0"><path d="M 152.523438 126.078125 C 148.636719 126.539062 148.265625 126.910156 147.804688 130.796875 C 147.34375 126.910156 146.972656 126.539062 143.085938 126.078125 C 146.972656 125.617188 147.34375 125.246094 147.804688 121.359375 C 148.265625 125.246094 148.636719 125.617188 152.523438 126.078125 " clip-rule="nonzero"/></clipPath><linearGradient x1="0.267444" gradientTransform="matrix(0.000000000000007359, 120.183484, -120.183484, 0.000000000000007359, 147.805238, 89.215638)" y1="0" x2="0.345988" gradientUnits="userSpaceOnUse" y2="0" id="fc784e89ca"><stop stop-opacity="1" stop-color="rgb(87.799072%, 10.998535%, 15.299988%)" offset="0"/><stop stop-opacity="1" stop-color="rgb(87.646484%, 10.997009%, 15.299988%)" offset="0.5"/><stop stop-opacity="1" stop-color="rgb(87.394714%, 10.894775%, 15.299988%)" offset="0.625"/><stop stop-opacity="1" stop-color="rgb(87.19635%, 10.696411%, 15.299988%)" offset="0.75"/><stop stop-opacity="1" stop-color="rgb(86.997986%, 10.598755%, 15.299988%)" offset="0.875"/><stop stop-opacity="1" stop-color="rgb(86.798096%, 10.598755%, 15.299988%)" offset="1"/></linearGradient><clipPath id="f33fbc855e"><path d="M 160.6875 143.320312 L 166.261719 143.320312 L 166.261719 148.898438 L 160.6875 148.898438 Z M 160.6875 143.320312 " clip-rule="nonzero"/></clipPath><clipPath id="fed8864b7e"><path d="M 166.261719 146.109375 C 163.964844 146.382812 163.746094 146.601562 163.472656 148.898438 C 163.203125 146.601562 162.980469 146.382812 160.6875 146.109375 C 162.980469 145.835938 163.203125 145.617188 163.472656 143.320312 C 163.746094 145.617188 163.964844 145.835938 166.261719 146.109375 Z M 166.261719 146.109375 " clip-rule="nonzero"/></clipPath><clipPath id="44b8a14a3f"><path d="M 166.261719 146.109375 C 163.964844 146.382812 163.746094 146.601562 163.472656 148.898438 C 163.203125 146.601562 162.980469 146.382812 160.6875 146.109375 C 162.980469 145.835938 163.203125 145.617188 163.472656 143.320312 C 163.746094 145.617188 163.964844 145.835938 166.261719 146.109375 " clip-rule="nonzero"/></clipPath><linearGradient x1="0.450199" gradientTransform="matrix(0.000000000000007359, 120.183484, -120.183484, 0.000000000000007359, 163.474061, 89.215518)" y1="0" x2="0.496583" gradientUnits="userSpaceOnUse" y2="0" id="87d1d6b2c3"><stop stop-opacity="1" stop-color="rgb(84.695435%, 10.598755%, 15.699768%)" offset="0"/><stop stop-opacity="1" stop-color="rgb(84.596252%, 10.598755%, 15.699768%)" offset="0.25"/><stop stop-opacity="1" stop-color="rgb(84.399414%, 10.598755%, 15.699768%)" offset="0.5"/><stop stop-opacity="1" stop-color="rgb(84.202576%, 10.598755%, 15.699768%)" offset="0.75"/><stop stop-opacity="1" stop-color="rgb(84.004211%, 10.598755%, 15.699768%)" offset="1"/></linearGradient><clipPath id="e0fb7959fe"><path d="M 135.648438 170.007812 L 145.089844 170.007812 L 145.089844 179.445312 L 135.648438 179.445312 Z M 135.648438 170.007812 " clip-rule="nonzero"/></clipPath><clipPath id="1a656841c0"><path d="M 145.089844 174.726562 C 141.203125 175.1875 140.828125 175.558594 140.367188 179.445312 C 139.910156 175.558594 139.535156 175.1875 135.648438 174.726562 C 139.535156 174.265625 139.910156 173.894531 140.367188 170.007812 C 140.828125 173.894531 141.203125 174.265625 145.089844 174.726562 Z M 145.089844 174.726562 " clip-rule="nonzero"/></clipPath><clipPath id="6cc14e8607"><path d="M 145.089844 174.726562 C 141.203125 175.1875 140.828125 175.558594 140.367188 179.445312 C 139.910156 175.558594 139.535156 175.1875 135.648438 174.726562 C 139.535156 174.265625 139.910156 173.894531 140.367188 170.007812 C 140.828125 173.894531 141.203125 174.265625 145.089844 174.726562 " clip-rule="nonzero"/></clipPath><linearGradient x1="0.672233" gradientTransform="matrix(0.000000000000007359, 120.183484, -120.183484, 0.000000000000007359, 140.368623, 89.215518)" y1="0" x2="0.750776" gradientUnits="userSpaceOnUse" y2="0" id="b5ed455795"><stop stop-opacity="1" stop-color="rgb(80.795288%, 10.598755%, 16.499329%)" offset="0"/><stop stop-opacity="1" stop-color="rgb(80.69458%, 10.598755%, 16.499329%)" offset="0.125"/><stop stop-opacity="1" stop-color="rgb(80.496216%, 10.598755%, 16.499329%)" offset="0.25"/><stop stop-opacity="1" stop-color="rgb(80.297852%, 10.598755%, 16.499329%)" offset="0.375"/><stop stop-opacity="1" stop-color="rgb(80.097961%, 10.598755%, 16.499329%)" offset="0.5"/><stop stop-opacity="1" stop-color="rgb(79.998779%, 10.598755%, 16.499329%)" offset="0.75"/><stop stop-opacity="1" stop-color="rgb(79.899597%, 10.598755%, 16.596985%)" offset="0.875"/><stop stop-opacity="1" stop-color="rgb(79.702759%, 10.598755%, 16.795349%)" offset="1"/></linearGradient><clipPath id="d323af4d92"><path d="M 163.472656 185.265625 L 166.558594 185.265625 L 166.558594 188.347656 L 163.472656 188.347656 Z M 163.472656 185.265625 " clip-rule="nonzero"/></clipPath><clipPath id="0771ec015f"><path d="M 166.558594 186.808594 C 165.289062 186.957031 165.167969 187.078125 165.015625 188.347656 C 164.867188 187.078125 164.742188 186.957031 163.472656 186.808594 C 164.742188 186.65625 164.867188 186.535156 165.015625 185.265625 C 165.167969 186.535156 165.289062 186.65625 166.558594 186.808594 Z M 166.558594 186.808594 " clip-rule="nonzero"/></clipPath><clipPath id="887d12ea12"><path d="M 166.558594 186.808594 C 165.289062 186.957031 165.167969 187.078125 165.015625 188.347656 C 164.867188 187.078125 164.742188 186.957031 163.472656 186.808594 C 164.742188 186.65625 164.867188 186.535156 165.015625 185.265625 C 165.167969 186.535156 165.289062 186.65625 166.558594 186.808594 " clip-rule="nonzero"/></clipPath><linearGradient x1="0.799189" gradientTransform="matrix(0.000000000000007359, 120.183484, -120.183484, 0.000000000000007359, 165.016053, 89.215518)" y1="0" x2="0.82485" gradientUnits="userSpaceOnUse" y2="0" id="0fd355581e"><stop stop-opacity="1" stop-color="rgb(78.399658%, 10.598755%, 16.899109%)" offset="0"/><stop stop-opacity="1" stop-color="rgb(78.398132%, 10.598755%, 16.899109%)" offset="0.5"/><stop stop-opacity="1" stop-color="rgb(78.29895%, 10.598755%, 16.899109%)" offset="0.75"/><stop stop-opacity="1" stop-color="rgb(78.102112%, 10.598755%, 16.899109%)" offset="1"/></linearGradient><clipPath id="fa17a2bae4"><path d="M 215.921875 177.367188 L 225.363281 177.367188 L 225.363281 186.808594 L 215.921875 186.808594 Z M 215.921875 177.367188 " clip-rule="nonzero"/></clipPath><clipPath id="92b2a28632"><path d="M 225.363281 182.085938 C 221.476562 182.546875 221.101562 182.917969 220.640625 186.808594 C 220.183594 182.917969 219.808594 182.546875 215.921875 182.085938 C 219.808594 181.628906 220.183594 181.253906 220.640625 177.367188 C 221.101562 181.253906 221.476562 181.628906 225.363281 182.085938 Z M 225.363281 182.085938 " clip-rule="nonzero"/></clipPath><clipPath id="f5373adf55"><path d="M 225.363281 182.085938 C 221.476562 182.546875 221.101562 182.917969 220.640625 186.808594 C 220.183594 182.917969 219.808594 182.546875 215.921875 182.085938 C 219.808594 181.628906 220.183594 181.253906 220.640625 177.367188 C 221.101562 181.253906 221.476562 181.628906 225.363281 182.085938 " clip-rule="nonzero"/></clipPath><linearGradient x1="0.733476" gradientTransform="matrix(0.000000000000007359, 120.183484, -120.183484, 0.000000000000007359, 220.642089, 89.215518)" y1="0" x2="0.81202" gradientUnits="userSpaceOnUse" y2="0" id="4706729267"><stop stop-opacity="1" stop-color="rgb(79.598999%, 10.598755%, 16.508484%)" offset="0"/><stop stop-opacity="1" stop-color="rgb(79.594421%, 10.598755%, 16.703796%)" offset="0.25"/><stop stop-opacity="1" stop-color="rgb(79.492188%, 10.598755%, 16.899109%)" offset="0.375"/><stop stop-opacity="1" stop-color="rgb(79.293823%, 10.598755%, 16.899109%)" offset="0.5"/><stop stop-opacity="1" stop-color="rgb(79.093933%, 10.598755%, 16.899109%)" offset="0.625"/><stop stop-opacity="1" stop-color="rgb(78.895569%, 10.598755%, 16.899109%)" offset="0.75"/><stop stop-opacity="1" stop-color="rgb(78.697205%, 10.598755%, 16.899109%)" offset="0.875"/><stop stop-opacity="1" stop-color="rgb(78.49884%, 10.598755%, 16.899109%)" offset="1"/></linearGradient><clipPath id="d5a7e2a174"><path d="M 122.394531 99.035156 L 252.605469 99.035156 L 252.605469 229.246094 L 122.394531 229.246094 Z M 122.394531 99.035156 " clip-rule="nonzero"/></clipPath><clipPath id="e7664a91bc"><path d="M 187.5 227.085938 C 152.789062 227.085938 124.550781 198.847656 124.550781 164.140625 C 124.550781 129.429688 152.789062 101.195312 187.5 101.195312 C 222.207031 101.195312 250.445312 129.429688 250.445312 164.140625 C 250.445312 198.847656 222.207031 227.085938 187.5 227.085938 Z M 233.535156 118.105469 C 221.238281 105.804688 204.890625 99.035156 187.5 99.035156 C 170.109375 99.035156 153.761719 105.804688 141.460938 118.105469 C 129.164062 130.398438 122.394531 146.75 122.394531 164.140625 C 122.394531 181.53125 129.164062 197.878906 141.460938 210.175781 C 153.761719 222.476562 170.109375 229.246094 187.5 229.246094 C 204.890625 229.246094 221.238281 222.476562 233.535156 210.175781 C 245.835938 197.878906 252.605469 181.53125 252.605469 164.140625 C 252.605469 146.75 245.835938 130.398438 233.535156 118.105469 Z M 233.535156 118.105469 " clip-rule="nonzero"/></clipPath><clipPath id="a17f2cd3f9"><path d="M 187.5 227.085938 C 152.789062 227.085938 124.550781 198.847656 124.550781 164.140625 C 124.550781 129.429688 152.789062 101.195312 187.5 101.195312 C 222.207031 101.195312 250.445312 129.429688 250.445312 164.140625 C 250.445312 198.847656 222.207031 227.085938 187.5 227.085938 Z M 233.535156 118.105469 C 221.238281 105.804688 204.890625 99.035156 187.5 99.035156 C 170.109375 99.035156 153.761719 105.804688 141.460938 118.105469 C 129.164062 130.398438 122.394531 146.75 122.394531 164.140625 C 122.394531 181.53125 129.164062 197.878906 141.460938 210.175781 C 153.761719 222.476562 170.109375 229.246094 187.5 229.246094 C 204.890625 229.246094 221.238281 222.476562 233.535156 210.175781 C 245.835938 197.878906 252.605469 181.53125 252.605469 164.140625 C 252.605469 146.75 245.835938 130.398438 233.535156 118.105469 " clip-rule="nonzero"/></clipPath><linearGradient x1="0.0816918" gradientTransform="matrix(0, 120.183484, -120.183484, 0, 187.5, 89.215518)" y1="0" x2="1.165146" gradientUnits="userSpaceOnUse" y2="0" id="2018bdeab4"><stop stop-opacity="1" stop-color="rgb(91.398621%, 10.998535%, 14.498901%)" offset="0"/><stop stop-opacity="1" stop-color="rgb(91.398621%, 10.998535%, 14.498901%)" offset="0.015625"/><stop stop-opacity="1" stop-color="rgb(91.30249%, 10.998535%, 14.498901%)" offset="0.0234375"/><stop stop-opacity="1" stop-color="rgb(91.104126%, 10.998535%, 14.498901%)" offset="0.03125"/><stop stop-opacity="1" stop-color="rgb(90.805054%, 10.998535%, 14.498901%)" offset="0.046875"/><stop stop-opacity="1" stop-color="rgb(90.510559%, 10.998535%, 14.498901%)" offset="0.0546875"/><stop stop-opacity="1" stop-color="rgb(90.315247%, 10.998535%, 14.498901%)" offset="0.0625"/><stop stop-opacity="1" stop-color="rgb(90.113831%, 10.998535%, 14.593506%)" offset="0.0703125"/><stop stop-opacity="1" stop-color="rgb(89.906311%, 10.998535%, 14.79187%)" offset="0.078125"/><stop stop-opacity="1" stop-color="rgb(89.801025%, 10.998535%, 14.897156%)" offset="0.09375"/><stop stop-opacity="1" stop-color="rgb(89.701843%, 10.998535%, 14.898682%)" offset="0.101562"/><stop stop-opacity="1" stop-color="rgb(89.498901%, 10.998535%, 14.898682%)" offset="0.109375"/><stop stop-opacity="1" stop-color="rgb(89.199829%, 10.998535%, 14.898682%)" offset="0.125"/><stop stop-opacity="1" stop-color="rgb(88.809204%, 10.998535%, 14.898682%)" offset="0.140625"/><stop stop-opacity="1" stop-color="rgb(88.606262%, 10.998535%, 14.898682%)" offset="0.15625"/><stop stop-opacity="1" stop-color="rgb(88.40332%, 10.998535%, 14.898682%)" offset="0.171875"/><stop stop-opacity="1" stop-color="rgb(88.012695%, 10.998535%, 15.089417%)" offset="0.1875"/><stop stop-opacity="1" stop-color="rgb(87.658691%, 10.998535%, 15.290833%)" offset="0.203125"/><stop stop-opacity="1" stop-color="rgb(87.304688%, 10.804749%, 15.299988%)" offset="0.21875"/><stop stop-opacity="1" stop-color="rgb(87.101746%, 10.604858%, 15.299988%)" offset="0.234375"/><stop stop-opacity="1" stop-color="rgb(86.898804%, 10.598755%, 15.299988%)" offset="0.25"/><stop stop-opacity="1" stop-color="rgb(86.508179%, 10.598755%, 15.299988%)" offset="0.265625"/><stop stop-opacity="1" stop-color="rgb(86.209106%, 10.598755%, 15.396118%)" offset="0.273438"/><stop stop-opacity="1" stop-color="rgb(86.001587%, 10.598755%, 15.596008%)" offset="0.28125"/><stop stop-opacity="1" stop-color="rgb(85.800171%, 10.598755%, 15.699768%)" offset="0.289062"/><stop stop-opacity="1" stop-color="rgb(85.603333%, 10.598755%, 15.699768%)" offset="0.296875"/><stop stop-opacity="1" stop-color="rgb(85.502625%, 10.598755%, 15.699768%)" offset="0.3125"/><stop stop-opacity="1" stop-color="rgb(85.403442%, 10.598755%, 15.699768%)" offset="0.320312"/><stop stop-opacity="1" stop-color="rgb(85.203552%, 10.598755%, 15.699768%)" offset="0.328125"/><stop stop-opacity="1" stop-color="rgb(84.90448%, 10.598755%, 15.699768%)" offset="0.34375"/><stop stop-opacity="1" stop-color="rgb(84.605408%, 10.598755%, 15.699768%)" offset="0.351562"/><stop stop-opacity="1" stop-color="rgb(84.399414%, 10.598755%, 15.699768%)" offset="0.359375"/><stop stop-opacity="1" stop-color="rgb(84.298706%, 10.598755%, 15.699768%)" offset="0.375"/><stop stop-opacity="1" stop-color="rgb(84.104919%, 10.598755%, 15.893555%)" offset="0.390625"/><stop stop-opacity="1" stop-color="rgb(83.807373%, 10.598755%, 16.093445%)" offset="0.398437"/><stop stop-opacity="1" stop-color="rgb(83.599854%, 10.598755%, 16.099548%)" offset="0.40625"/><stop stop-opacity="1" stop-color="rgb(83.300781%, 10.598755%, 16.099548%)" offset="0.421875"/><stop stop-opacity="1" stop-color="rgb(82.910156%, 10.598755%, 16.099548%)" offset="0.4375"/><stop stop-opacity="1" stop-color="rgb(82.559204%, 10.598755%, 16.099548%)" offset="0.46875"/><stop stop-opacity="1" stop-color="rgb(82.301331%, 10.598755%, 16.099548%)" offset="0.476562"/><stop stop-opacity="1" stop-color="rgb(82.095337%, 10.598755%, 16.1026%)" offset="0.484375"/><stop stop-opacity="1" stop-color="rgb(81.796265%, 10.598755%, 16.30249%)" offset="0.5"/><stop stop-opacity="1" stop-color="rgb(81.599426%, 10.598755%, 16.497803%)" offset="0.515625"/><stop stop-opacity="1" stop-color="rgb(81.500244%, 10.598755%, 16.499329%)" offset="0.523437"/><stop stop-opacity="1" stop-color="rgb(81.298828%, 10.598755%, 16.499329%)" offset="0.53125"/><stop stop-opacity="1" stop-color="rgb(80.999756%, 10.598755%, 16.499329%)" offset="0.546875"/><stop stop-opacity="1" stop-color="rgb(80.705261%, 10.598755%, 16.499329%)" offset="0.554687"/><stop stop-opacity="1" stop-color="rgb(80.509949%, 10.598755%, 16.499329%)" offset="0.5625"/><stop stop-opacity="1" stop-color="rgb(80.404663%, 10.598755%, 16.499329%)" offset="0.578125"/><stop stop-opacity="1" stop-color="rgb(80.201721%, 10.598755%, 16.499329%)" offset="0.59375"/><stop stop-opacity="1" stop-color="rgb(79.902649%, 10.598755%, 16.499329%)" offset="0.601562"/><stop stop-opacity="1" stop-color="rgb(79.693604%, 10.598755%, 16.503906%)" offset="0.609375"/><stop stop-opacity="1" stop-color="rgb(79.394531%, 10.598755%, 16.703796%)" offset="0.625"/><stop stop-opacity="1" stop-color="rgb(79.199219%, 10.598755%, 16.899109%)" offset="0.640625"/><stop stop-opacity="1" stop-color="rgb(79.100037%, 10.598755%, 16.899109%)" offset="0.648437"/><stop stop-opacity="1" stop-color="rgb(78.897095%, 10.598755%, 16.899109%)" offset="0.65625"/><stop stop-opacity="1" stop-color="rgb(78.598022%, 10.598755%, 16.899109%)" offset="0.671875"/><stop stop-opacity="1" stop-color="rgb(78.207397%, 10.598755%, 16.899109%)" offset="0.6875"/><stop stop-opacity="1" stop-color="rgb(78.00293%, 10.598755%, 16.899109%)" offset="0.703125"/><stop stop-opacity="1" stop-color="rgb(77.799988%, 10.598755%, 16.899109%)" offset="0.71875"/><stop stop-opacity="1" stop-color="rgb(77.445984%, 10.598755%, 16.903687%)" offset="0.734375"/><stop stop-opacity="1" stop-color="rgb(77.093506%, 10.598755%, 17.103577%)" offset="0.75"/><stop stop-opacity="1" stop-color="rgb(76.899719%, 10.598755%, 17.298889%)" offset="0.765625"/><stop stop-opacity="1" stop-color="rgb(76.799011%, 10.598755%, 17.298889%)" offset="0.773437"/><stop stop-opacity="1" stop-color="rgb(76.596069%, 10.598755%, 17.298889%)" offset="0.78125"/><stop stop-opacity="1" stop-color="rgb(76.296997%, 10.598755%, 17.298889%)" offset="0.796875"/><stop stop-opacity="1" stop-color="rgb(75.906372%, 10.598755%, 17.298889%)" offset="0.8125"/><stop stop-opacity="1" stop-color="rgb(75.701904%, 10.598755%, 17.298889%)" offset="0.828125"/><stop stop-opacity="1" stop-color="rgb(75.498962%, 10.598755%, 17.298889%)" offset="0.84375"/><stop stop-opacity="1" stop-color="rgb(75.201416%, 10.598755%, 17.298889%)" offset="0.859375"/><stop stop-opacity="1" stop-color="rgb(74.998474%, 10.598755%, 17.298889%)" offset="0.875"/><stop stop-opacity="1" stop-color="rgb(74.899292%, 10.598755%, 17.298889%)" offset="1"/></linearGradient><clipPath id="718ff91d50"><path d="M 112.5 89.140625 L 262.5 89.140625 L 262.5 239.140625 L 112.5 239.140625 Z M 112.5 89.140625 " clip-rule="nonzero"/></clipPath><clipPath id="aec1a9f05f"><path d="M 187.5 94.929688 C 225.722656 94.929688 256.707031 125.917969 256.707031 164.140625 C 256.707031 171.199219 255.648438 178.007812 253.6875 184.421875 C 252.160156 182.445312 249.773438 181.167969 247.085938 181.167969 C 243.316406 181.167969 240.132812 183.671875 239.101562 187.105469 C 232.734375 187.542969 227.707031 192.839844 227.707031 199.320312 C 227.707031 199.886719 227.746094 200.449219 227.824219 200.996094 C 227.292969 200.90625 226.75 200.859375 226.191406 200.859375 C 222.460938 200.859375 219.230469 202.980469 217.632812 206.082031 C 215.742188 204.886719 213.503906 204.195312 211.105469 204.195312 C 210.632812 204.195312 210.164062 204.226562 209.703125 204.277344 C 208.96875 201.425781 206.382812 199.320312 203.304688 199.320312 C 203.261719 199.320312 203.21875 199.320312 203.179688 199.320312 C 202.445312 194.738281 198.472656 191.234375 193.679688 191.234375 C 188.683594 191.234375 184.578125 195.042969 184.101562 199.914062 C 182.71875 198.894531 181.011719 198.289062 179.164062 198.289062 C 176.53125 198.289062 174.1875 199.511719 172.65625 201.414062 C 167.265625 197.769531 159.90625 198.980469 155.984375 204.257812 C 155.644531 204.714844 155.34375 205.1875 155.074219 205.671875 C 154.703125 205.285156 154.296875 204.917969 153.851562 204.585938 C 152.054688 203.25 149.945312 202.636719 147.871094 202.691406 C 146.960938 200.125 144.515625 198.289062 141.640625 198.289062 C 141.597656 198.289062 141.558594 198.292969 141.515625 198.292969 C 140.78125 193.707031 136.808594 190.207031 132.015625 190.207031 C 129.140625 190.207031 126.5625 191.46875 124.800781 193.46875 C 120.625 184.5625 118.289062 174.625 118.289062 164.140625 C 118.289062 125.917969 149.277344 94.929688 187.5 94.929688 Z M 187.5 89.140625 C 146.078125 89.140625 112.5 122.71875 112.5 164.140625 C 112.5 205.5625 146.078125 239.140625 187.5 239.140625 C 228.921875 239.140625 262.5 205.5625 262.5 164.140625 C 262.5 122.71875 228.921875 89.140625 187.5 89.140625 Z M 187.5 89.140625 " clip-rule="nonzero"/></clipPath><clipPath id="021ab17621"><path d="M 187.5 94.929688 C 225.722656 94.929688 256.707031 125.917969 256.707031 164.140625 C 256.707031 171.199219 255.648438 178.007812 253.6875 184.421875 C 252.160156 182.445312 249.773438 181.167969 247.085938 181.167969 C 243.316406 181.167969 240.132812 183.671875 239.101562 187.105469 C 232.734375 187.542969 227.707031 192.839844 227.707031 199.320312 C 227.707031 199.886719 227.746094 200.449219 227.824219 200.996094 C 227.292969 200.90625 226.75 200.859375 226.191406 200.859375 C 222.460938 200.859375 219.230469 202.980469 217.632812 206.082031 C 215.742188 204.886719 213.503906 204.195312 211.105469 204.195312 C 210.632812 204.195312 210.164062 204.226562 209.703125 204.277344 C 208.96875 201.425781 206.382812 199.320312 203.304688 199.320312 C 203.261719 199.320312 203.21875 199.320312 203.179688 199.320312 C 202.445312 194.738281 198.472656 191.234375 193.679688 191.234375 C 188.683594 191.234375 184.578125 195.042969 184.101562 199.914062 C 182.71875 198.894531 181.011719 198.289062 179.164062 198.289062 C 176.53125 198.289062 174.1875 199.511719 172.65625 201.414062 C 167.265625 197.769531 159.90625 198.980469 155.984375 204.257812 C 155.644531 204.714844 155.34375 205.1875 155.074219 205.671875 C 154.703125 205.285156 154.296875 204.917969 153.851562 204.585938 C 152.054688 203.25 149.945312 202.636719 147.871094 202.691406 C 146.960938 200.125 144.515625 198.289062 141.640625 198.289062 C 141.597656 198.289062 141.558594 198.292969 141.515625 198.292969 C 140.78125 193.707031 136.808594 190.207031 132.015625 190.207031 C 129.140625 190.207031 126.5625 191.46875 124.800781 193.46875 C 120.625 184.5625 118.289062 174.625 118.289062 164.140625 C 118.289062 125.917969 149.277344 94.929688 187.5 94.929688 Z M 187.5 89.140625 C 146.078125 89.140625 112.5 122.71875 112.5 164.140625 C 112.5 205.5625 146.078125 239.140625 187.5 239.140625 C 228.921875 239.140625 262.5 205.5625 262.5 164.140625 C 262.5 122.71875 228.921875 89.140625 187.5 89.140625 " clip-rule="nonzero"/></clipPath><linearGradient x1="0.000000138696" gradientTransform="matrix(0.000000000000007359, 120.183484, -120.183484, 0.000000000000007359, 187.5, 89.140138)" y1="0" x2="1.248092" gradientUnits="userSpaceOnUse" y2="0" id="031e76860a"><stop stop-opacity="1" stop-color="rgb(92.89856%, 10.998535%, 14.099121%)" offset="0"/><stop stop-opacity="1" stop-color="rgb(92.89856%, 10.998535%, 14.099121%)" offset="0.015625"/><stop stop-opacity="1" stop-color="rgb(92.799377%, 10.998535%, 14.099121%)" offset="0.0234375"/><stop stop-opacity="1" stop-color="rgb(92.596436%, 10.998535%, 14.099121%)" offset="0.03125"/><stop stop-opacity="1" stop-color="rgb(92.347717%, 10.998535%, 14.099121%)" offset="0.046875"/><stop stop-opacity="1" stop-color="rgb(92.00592%, 10.998535%, 14.292908%)" offset="0.0625"/><stop stop-opacity="1" stop-color="rgb(91.708374%, 10.998535%, 14.492798%)" offset="0.0703125"/><stop stop-opacity="1" stop-color="rgb(91.499329%, 10.998535%, 14.498901%)" offset="0.078125"/><stop stop-opacity="1" stop-color="rgb(91.200256%, 10.998535%, 14.498901%)" offset="0.09375"/><stop stop-opacity="1" stop-color="rgb(90.901184%, 10.998535%, 14.498901%)" offset="0.101563"/><stop stop-opacity="1" stop-color="rgb(90.693665%, 10.998535%, 14.498901%)" offset="0.109375"/><stop stop-opacity="1" stop-color="rgb(90.394592%, 10.998535%, 14.498901%)" offset="0.125"/><stop stop-opacity="1" stop-color="rgb(90.003967%, 10.998535%, 14.694214%)" offset="0.140625"/><stop stop-opacity="1" stop-color="rgb(89.704895%, 10.998535%, 14.894104%)" offset="0.148438"/><stop stop-opacity="1" stop-color="rgb(89.49585%, 10.998535%, 14.898682%)" offset="0.15625"/><stop stop-opacity="1" stop-color="rgb(89.196777%, 10.998535%, 14.898682%)" offset="0.171875"/><stop stop-opacity="1" stop-color="rgb(88.806152%, 10.998535%, 14.898682%)" offset="0.1875"/><stop stop-opacity="1" stop-color="rgb(88.50708%, 10.998535%, 14.898682%)" offset="0.195313"/><stop stop-opacity="1" stop-color="rgb(88.301086%, 10.998535%, 14.900208%)" offset="0.203125"/><stop stop-opacity="1" stop-color="rgb(88.198853%, 10.998535%, 15.098572%)" offset="0.21875"/><stop stop-opacity="1" stop-color="rgb(88.098145%, 10.998535%, 15.296936%)" offset="0.226563"/><stop stop-opacity="1" stop-color="rgb(87.893677%, 10.998535%, 15.299988%)" offset="0.234375"/><stop stop-opacity="1" stop-color="rgb(87.644958%, 10.998535%, 15.299988%)" offset="0.25"/><stop stop-opacity="1" stop-color="rgb(87.303162%, 10.803223%, 15.299988%)" offset="0.265625"/><stop stop-opacity="1" stop-color="rgb(87.004089%, 10.603333%, 15.299988%)" offset="0.273438"/><stop stop-opacity="1" stop-color="rgb(86.79657%, 10.598755%, 15.299988%)" offset="0.28125"/><stop stop-opacity="1" stop-color="rgb(86.497498%, 10.598755%, 15.299988%)" offset="0.296875"/><stop stop-opacity="1" stop-color="rgb(86.106873%, 10.598755%, 15.493774%)" offset="0.3125"/><stop stop-opacity="1" stop-color="rgb(85.8078%, 10.598755%, 15.693665%)" offset="0.320313"/><stop stop-opacity="1" stop-color="rgb(85.598755%, 10.598755%, 15.699768%)" offset="0.328125"/><stop stop-opacity="1" stop-color="rgb(85.299683%, 10.598755%, 15.699768%)" offset="0.34375"/><stop stop-opacity="1" stop-color="rgb(85.00061%, 10.598755%, 15.699768%)" offset="0.351563"/><stop stop-opacity="1" stop-color="rgb(84.797668%, 10.598755%, 15.699768%)" offset="0.359375"/><stop stop-opacity="1" stop-color="rgb(84.698486%, 10.598755%, 15.699768%)" offset="0.375"/><stop stop-opacity="1" stop-color="rgb(84.503174%, 10.598755%, 15.699768%)" offset="0.390625"/><stop stop-opacity="1" stop-color="rgb(84.204102%, 10.598755%, 15.79895%)" offset="0.398437"/><stop stop-opacity="1" stop-color="rgb(83.996582%, 10.598755%, 15.99884%)" offset="0.40625"/><stop stop-opacity="1" stop-color="rgb(83.69751%, 10.598755%, 16.099548%)" offset="0.421875"/><stop stop-opacity="1" stop-color="rgb(83.306885%, 10.598755%, 16.099548%)" offset="0.4375"/><stop stop-opacity="1" stop-color="rgb(83.007812%, 10.598755%, 16.099548%)" offset="0.445312"/><stop stop-opacity="1" stop-color="rgb(82.800293%, 10.598755%, 16.099548%)" offset="0.453125"/><stop stop-opacity="1" stop-color="rgb(82.550049%, 10.598755%, 16.099548%)" offset="0.46875"/><stop stop-opacity="1" stop-color="rgb(82.299805%, 10.598755%, 16.099548%)" offset="0.476563"/><stop stop-opacity="1" stop-color="rgb(82.092285%, 10.598755%, 16.104126%)" offset="0.484375"/><stop stop-opacity="1" stop-color="rgb(81.793213%, 10.598755%, 16.304016%)" offset="0.5"/><stop stop-opacity="1" stop-color="rgb(81.599426%, 10.598755%, 16.499329%)" offset="0.515625"/><stop stop-opacity="1" stop-color="rgb(81.498718%, 10.598755%, 16.499329%)" offset="0.523438"/><stop stop-opacity="1" stop-color="rgb(81.295776%, 10.598755%, 16.499329%)" offset="0.53125"/><stop stop-opacity="1" stop-color="rgb(80.996704%, 10.598755%, 16.499329%)" offset="0.546875"/><stop stop-opacity="1" stop-color="rgb(80.606079%, 10.598755%, 16.499329%)" offset="0.5625"/><stop stop-opacity="1" stop-color="rgb(80.307007%, 10.598755%, 16.499329%)" offset="0.570313"/><stop stop-opacity="1" stop-color="rgb(80.099487%, 10.598755%, 16.499329%)" offset="0.578125"/><stop stop-opacity="1" stop-color="rgb(79.800415%, 10.598755%, 16.499329%)" offset="0.59375"/><stop stop-opacity="1" stop-color="rgb(79.499817%, 10.598755%, 16.600037%)" offset="0.601563"/><stop stop-opacity="1" stop-color="rgb(79.292297%, 10.598755%, 16.799927%)" offset="0.609375"/><stop stop-opacity="1" stop-color="rgb(78.993225%, 10.598755%, 16.899109%)" offset="0.625"/><stop stop-opacity="1" stop-color="rgb(78.799438%, 10.598755%, 16.899109%)" offset="0.640625"/><stop stop-opacity="1" stop-color="rgb(78.69873%, 10.598755%, 16.899109%)" offset="0.648438"/><stop stop-opacity="1" stop-color="rgb(78.495789%, 10.598755%, 16.899109%)" offset="0.65625"/><stop stop-opacity="1" stop-color="rgb(78.196716%, 10.598755%, 16.899109%)" offset="0.671875"/><stop stop-opacity="1" stop-color="rgb(77.806091%, 10.598755%, 16.899109%)" offset="0.6875"/><stop stop-opacity="1" stop-color="rgb(77.452087%, 10.598755%, 16.900635%)" offset="0.703125"/><stop stop-opacity="1" stop-color="rgb(77.099609%, 10.598755%, 17.098999%)" offset="0.71875"/><stop stop-opacity="1" stop-color="rgb(76.800537%, 10.598755%, 17.295837%)" offset="0.726563"/><stop stop-opacity="1" stop-color="rgb(76.597595%, 10.598755%, 17.298889%)" offset="0.734375"/><stop stop-opacity="1" stop-color="rgb(76.498413%, 10.598755%, 17.298889%)" offset="0.75"/><stop stop-opacity="1" stop-color="rgb(76.303101%, 10.598755%, 17.298889%)" offset="0.765625"/><stop stop-opacity="1" stop-color="rgb(76.002502%, 10.598755%, 17.298889%)" offset="0.773438"/><stop stop-opacity="1" stop-color="rgb(75.796509%, 10.598755%, 17.298889%)" offset="0.78125"/><stop stop-opacity="1" stop-color="rgb(75.500488%, 10.598755%, 17.298889%)" offset="0.8125"/><stop stop-opacity="1" stop-color="rgb(75.202942%, 10.598755%, 17.298889%)" offset="0.84375"/><stop stop-opacity="1" stop-color="rgb(75%, 10.598755%, 17.298889%)" offset="0.875"/><stop stop-opacity="1" stop-color="rgb(74.899292%, 10.598755%, 17.298889%)" offset="1"/></linearGradient><clipPath id="09cc93a88b"><path d="M 7.015625 7.015625 L 367.765625 7.015625 L 367.765625 367.765625 L 7.015625 367.765625 Z M 7.015625 7.015625 " clip-rule="nonzero"/></clipPath></defs><g clip-path="url(#30086c2eb1)"><g clip-path="url(#ffceb8070b)"><g clip-path="url(#92a5161528)"><path fill="url(#1785f186a7)" d="M 193.800781 171.007812 L 181.199219 171.007812 L 181.199219 204.496094 L 193.800781 204.496094 Z M 193.800781 171.007812 " fill-rule="nonzero"/></g></g></g><g clip-path="url(#38eb0bb08d)"><g clip-path="url(#2ddddac2f6)"><g clip-path="url(#ab74594571)"><path fill="url(#1f09c813ea)" d="M 199.363281 135.058594 L 179.34375 135.058594 L 179.34375 151.714844 L 199.363281 151.714844 Z M 199.363281 135.058594 " fill-rule="nonzero"/></g></g></g><g clip-path="url(#19f77fb7a9)"><g clip-path="url(#4b9ac092f1)"><g clip-path="url(#326ad68ddd)"><path fill="url(#e373eb04cd)" d="M 192.605469 138.5 L 182.394531 138.5 L 182.394531 148.710938 L 192.605469 148.710938 Z M 192.605469 138.5 " fill-rule="nonzero"/></g></g></g><g clip-path="url(#c4d7d2a455)"><g clip-path="url(#59602563cf)"><g clip-path="url(#5cac977da4)"><path fill="#d81b28" d="M 185.929688 143.039062 L 185.613281 143.039062 L 185.613281 143.605469 L 185.929688 143.605469 Z M 185.929688 143.039062 " fill-opacity="1" fill-rule="nonzero"/></g></g></g><g clip-path="url(#ae694b0171)"><g clip-path="url(#0665185948)"><g clip-path="url(#c9550ce19f)"><path fill="#d91b28" d="M 187.5 141.71875 L 185.828125 141.71875 L 185.828125 142.867188 L 187.5 142.867188 Z M 187.5 141.71875 " fill-opacity="1" fill-rule="nonzero"/></g></g></g><g clip-path="url(#f24196a91f)"><g clip-path="url(#38e3d45005)"><g clip-path="url(#ebf9bb3794)"><path fill="url(#32677b1069)" d="M 190.523438 140.582031 L 184.476562 140.582031 L 184.476562 146.628906 L 190.523438 146.628906 Z M 190.523438 140.582031 " fill-rule="nonzero"/></g></g></g><g clip-path="url(#35b7230e61)"><g clip-path="url(#26de7b2ea1)"><g clip-path="url(#bb04f58afb)"><path fill="url(#eee71ee5a8)" d="M 194.175781 165.847656 L 180.824219 165.847656 L 180.824219 170.007812 L 194.175781 170.007812 Z M 194.175781 165.847656 " fill-rule="nonzero"/></g></g></g><g clip-path="url(#0448335680)"><g clip-path="url(#9e10199b5d)"><g clip-path="url(#c8fb9e9f92)"><path fill="url(#9d5f9e89c1)" d="M 178.925781 158.441406 L 167.824219 158.441406 L 167.824219 172.085938 L 178.925781 172.085938 Z M 178.925781 158.441406 " fill-rule="nonzero"/></g></g></g><g clip-path="url(#cd8cf166bc)"><g clip-path="url(#7e1b15a3a0)"><g clip-path="url(#6401c41e72)"><path fill="url(#be0a770ac8)" d="M 207.175781 158.441406 L 196.074219 158.441406 L 196.074219 172.085938 L 207.175781 172.085938 Z M 207.175781 158.441406 " fill-rule="nonzero"/></g></g></g><g clip-path="url(#a893a10ab9)"><g clip-path="url(#7f68797237)"><g clip-path="url(#2cd728692c)"><path fill="url(#f79376522b)" d="M 199.070312 151.863281 L 179.636719 151.863281 L 179.636719 164.390625 L 199.070312 164.390625 Z M 199.070312 151.863281 " fill-rule="nonzero"/></g></g></g><g clip-path="url(#3da3281c23)"><g clip-path="url(#ddc0747d35)"><g clip-path="url(#1db8a68f99)"><path fill="url(#657f7464f5)" d="M 181 151.863281 L 175.929688 151.863281 L 175.929688 164.390625 L 181 164.390625 Z M 181 151.863281 " fill-rule="nonzero"/></g></g></g><g clip-path="url(#7b02d26528)"><g clip-path="url(#ec10a6a6a9)"><g clip-path="url(#54642504e5)"><path fill="url(#8c18d0a471)" d="M 179.648438 135.652344 L 175.636719 135.652344 L 175.636719 150.828125 L 179.648438 150.828125 Z M 179.648438 135.652344 " fill-rule="nonzero"/></g></g></g><g clip-path="url(#1720ed7748)"><g clip-path="url(#67ab4bf2ca)"><g clip-path="url(#229466fa91)"><path fill="url(#82f700b5cb)" d="M 197.167969 120.007812 L 181.730469 120.007812 L 181.730469 134.492188 L 197.167969 134.492188 Z M 197.167969 120.007812 " fill-rule="nonzero"/></g></g></g><g clip-path="url(#4d10fd9415)"><g clip-path="url(#223669fabb)"><g clip-path="url(#97c3163375)"><path fill="url(#d34449d38b)" d="M 188.582031 117.664062 L 177.832031 117.664062 L 177.832031 134.492188 L 188.582031 134.492188 Z M 188.582031 117.664062 " fill-rule="nonzero"/></g></g></g><g clip-path="url(#72528a06c0)"><g clip-path="url(#4a99c7f9cb)"><g clip-path="url(#a5ba7621ed)"><path fill="url(#417e2774c8)" d="M 210.386719 115.644531 L 203.96875 115.644531 L 203.96875 122.0625 L 210.386719 122.0625 Z M 210.386719 115.644531 " fill-rule="nonzero"/></g></g></g><g clip-path="url(#5d84b42877)"><g clip-path="url(#e92e73a89a)"><g clip-path="url(#87c01b156d)"><path fill="url(#0d55735a65)" d="M 232.621094 146.789062 L 227.542969 146.789062 L 227.542969 151.871094 L 232.621094 151.871094 Z M 232.621094 146.789062 " fill-rule="nonzero"/></g></g></g><g clip-path="url(#b3094420c4)"><g clip-path="url(#67a26332fc)"><g clip-path="url(#8b54fa48d0)"><path fill="url(#fc784e89ca)" d="M 152.523438 121.359375 L 143.085938 121.359375 L 143.085938 130.796875 L 152.523438 130.796875 Z M 152.523438 121.359375 " fill-rule="nonzero"/></g></g></g><g clip-path="url(#f33fbc855e)"><g clip-path="url(#fed8864b7e)"><g clip-path="url(#44b8a14a3f)"><path fill="url(#87d1d6b2c3)" d="M 166.261719 143.320312 L 160.6875 143.320312 L 160.6875 148.898438 L 166.261719 148.898438 Z M 166.261719 143.320312 " fill-rule="nonzero"/></g></g></g><g clip-path="url(#e0fb7959fe)"><g clip-path="url(#1a656841c0)"><g clip-path="url(#6cc14e8607)"><path fill="url(#b5ed455795)" d="M 145.089844 170.007812 L 135.648438 170.007812 L 135.648438 179.445312 L 145.089844 179.445312 Z M 145.089844 170.007812 " fill-rule="nonzero"/></g></g></g><g clip-path="url(#d323af4d92)"><g clip-path="url(#0771ec015f)"><g clip-path="url(#887d12ea12)"><path fill="url(#0fd355581e)" d="M 166.558594 185.265625 L 163.472656 185.265625 L 163.472656 188.347656 L 166.558594 188.347656 Z M 166.558594 185.265625 " fill-rule="nonzero"/></g></g></g><g clip-path="url(#fa17a2bae4)"><g clip-path="url(#92b2a28632)"><g clip-path="url(#f5373adf55)"><path fill="url(#4706729267)" d="M 225.363281 177.367188 L 215.921875 177.367188 L 215.921875 186.808594 L 225.363281 186.808594 Z M 225.363281 177.367188 " fill-rule="nonzero"/></g></g></g><g clip-path="url(#d5a7e2a174)"><g clip-path="url(#e7664a91bc)"><g clip-path="url(#a17f2cd3f9)"><path fill="url(#2018bdeab4)" d="M 252.605469 99.035156 L 122.394531 99.035156 L 122.394531 229.246094 L 252.605469 229.246094 Z M 252.605469 99.035156 " fill-rule="nonzero"/></g></g></g><g clip-path="url(#718ff91d50)"><g clip-path="url(#aec1a9f05f)"><g clip-path="url(#021ab17621)"><path fill="url(#031e76860a)" d="M 262.5 89.140625 L 112.5 89.140625 L 112.5 239.140625 L 262.5 239.140625 Z M 262.5 89.140625 " fill-rule="nonzero"/></g></g></g><g fill="#ffffff" fill-opacity="1"><g transform="translate(117.258453, 301.925663)"><g><path d="M 12.671875 0.292969 C 17.042969 0.292969 20.828125 -2.167969 22.699219 -5.765625 L 18.511719 -7.933594 C 17.449219 -5.839844 15.28125 -4.445312 12.671875 -4.445312 C 8.960938 -4.445312 6.132812 -7.308594 6.132812 -11.019531 C 6.132812 -14.730469 8.960938 -17.59375 12.671875 -17.59375 C 15.28125 -17.59375 17.449219 -16.199219 18.511719 -14.105469 L 22.699219 -16.273438 C 20.828125 -19.871094 17.042969 -22.332031 12.671875 -22.332031 C 6.429688 -22.332031 1.359375 -17.265625 1.359375 -11.019531 C 1.359375 -4.773438 6.429688 0.292969 12.671875 0.292969 Z M 12.671875 0.292969 "/></g></g></g><g fill="#ffffff" fill-opacity="1"><g transform="translate(150.018285, 301.925663)"><g><path d="M 13.664062 -9.074219 C 16.273438 -9.84375 18.109375 -12.269531 18.109375 -15.28125 C 18.109375 -19.027344 15.316406 -22.039062 11.535156 -22.039062 L 2.167969 -22.039062 L 2.167969 0 L 7.015625 0 L 7.015625 -8.523438 L 8.960938 -8.523438 L 14.398438 0 L 19.835938 0 Z M 10.800781 -12.523438 L 7.015625 -12.523438 L 7.015625 -17.742188 L 10.800781 -17.742188 C 12.339844 -17.742188 13.480469 -16.640625 13.480469 -15.132812 C 13.480469 -13.589844 12.339844 -12.523438 10.800781 -12.523438 Z M 10.800781 -12.523438 "/></g></g></g><g fill="#ffffff" fill-opacity="1"><g transform="translate(178.775249, 301.925663)"><g><path d="M 15.648438 0 L 20.828125 0 L 12.894531 -22.039062 L 7.457031 -22.039062 L -0.476562 0 L 4.703125 0 L 6.0625 -4.152344 L 14.289062 -4.152344 Z M 7.347656 -8.191406 L 10.175781 -16.933594 L 13.003906 -8.191406 Z M 7.347656 -8.191406 "/></g></g></g><g fill="#ffffff" fill-opacity="1"><g transform="translate(208.229959, 301.925663)"><g><path d="M 8.960938 0.292969 C 13.078125 0.292969 16.566406 -2.128906 16.566406 -6.246094 C 16.566406 -14.398438 6.429688 -12.378906 6.429688 -16.199219 C 6.429688 -17.449219 7.382812 -18.035156 8.558594 -18.035156 C 9.808594 -18.035156 11.054688 -17.335938 12.15625 -16.125 L 15.390625 -19.210938 C 13.773438 -21.082031 11.3125 -22.332031 8.59375 -22.332031 C 5.105469 -22.332031 1.542969 -20.238281 1.542969 -15.832031 C 1.542969 -8.339844 11.71875 -10.136719 11.71875 -6.28125 C 11.71875 -5.070312 10.6875 -4.261719 9 -4.261719 C 6.980469 -4.261719 5.398438 -5.398438 4.589844 -7.125 L 0.585938 -4.628906 C 2.019531 -1.875 5.105469 0.292969 8.960938 0.292969 Z M 8.960938 0.292969 "/></g></g></g><g fill="#ffffff" fill-opacity="1"><g transform="translate(234.746787, 301.925663)"><g><path d="M 15.976562 -22.039062 L 15.976562 -13.1875 L 7.015625 -13.1875 L 7.015625 -22.039062 L 2.167969 -22.039062 L 2.167969 0 L 7.015625 0 L 7.015625 -8.890625 L 15.976562 -8.890625 L 15.976562 0 L 20.789062 0 L 20.789062 -22.039062 Z M 15.976562 -22.039062 "/></g></g></g><g clip-path="url(#09cc93a88b)"><path fill="#ffffff" d="M 7.015625 7.015625 L 7.015625 367.765625 L 367.765625 367.765625 L 367.765625 7.015625 Z M 340.015625 340.015625 L 34.765625 340.015625 L 34.765625 34.765625 L 340.015625 34.765625 Z M 340.015625 340.015625 " fill-opacity="1" fill-rule="nonzero"/></g></svg>